<?xml version="1.0" encoding="UTF-8" standalone="no"?>
<!DOCTYPE svg PUBLIC "-//W3C//DTD SVG 1.1//EN" "http://www.w3.org/Graphics/SVG/1.1/DTD/svg11.dtd">
<svg width="100%" height="100%" viewBox="0 0 316 62" version="1.1" xmlns="http://www.w3.org/2000/svg" xmlns:xlink="http://www.w3.org/1999/xlink" xml:space="preserve" xmlns:serif="http://www.serif.com/" style="fill-rule:evenodd;clip-rule:evenodd;stroke-linejoin:round;stroke-miterlimit:2;">
    <g transform="matrix(1,0,0,1,3.7705,-153.748)">
        <g transform="matrix(1.50032,0,0,1,-104.945,8.57956)">
            <path d="M83.909,152.609C84.229,151.949 84.539,151.559 84.839,151.439C85.139,151.319 85.385,151.349 85.579,151.529C85.772,151.709 85.885,151.989 85.918,152.369C85.952,152.749 85.849,153.119 85.609,153.479C85.489,153.659 85.319,153.924 85.099,154.274C84.879,154.624 84.649,154.999 84.409,155.399C84.169,155.799 83.946,156.184 83.739,156.554C83.532,156.924 83.382,157.209 83.289,157.409C81.263,161.889 79.41,166.274 77.73,170.564C76.051,174.854 74.578,178.859 73.311,182.579C73.538,182.679 73.774,182.824 74.021,183.014C74.268,183.204 74.504,183.489 74.731,183.869C75.397,183.229 76.084,182.514 76.79,181.724C77.497,180.934 78.18,180.129 78.84,179.309C79.5,178.489 80.116,177.704 80.69,176.954C81.263,176.204 81.753,175.539 82.159,174.959C82.566,174.379 82.869,173.934 83.069,173.624C83.269,173.314 83.329,173.199 83.249,173.279C83.422,173.099 83.559,173.029 83.659,173.069C83.759,173.109 83.832,173.194 83.879,173.324C83.926,173.454 83.949,173.599 83.949,173.759C83.949,173.919 83.936,174.039 83.909,174.119C83.896,174.139 83.769,174.334 83.529,174.704C83.289,175.074 82.962,175.559 82.549,176.159C82.136,176.759 81.649,177.444 81.09,178.214C80.53,178.984 79.93,179.774 79.29,180.584C78.65,181.394 77.984,182.194 77.29,182.984C76.597,183.774 75.911,184.489 75.231,185.129C75.391,185.649 75.514,186.289 75.601,187.049C75.687,187.809 75.717,188.699 75.691,189.719C75.677,190.519 75.544,191.404 75.291,192.374C75.037,193.344 74.711,194.329 74.311,195.329C73.911,196.329 73.465,197.299 72.971,198.239C72.478,199.179 71.981,200.019 71.482,200.759C70.982,201.499 70.505,202.104 70.052,202.574C69.599,203.044 69.212,203.299 68.892,203.339C68.212,203.419 67.776,203.059 67.582,202.259C67.389,201.459 67.386,200.329 67.572,198.869C67.759,197.409 68.109,195.689 68.622,193.709C69.135,191.729 69.752,189.599 70.472,187.319C70.165,187.199 69.895,186.974 69.662,186.644C69.429,186.314 69.325,185.819 69.352,185.159C69.379,184.599 69.615,184.069 70.062,183.569C70.508,183.069 71.172,182.719 72.051,182.519C72.745,180.479 73.481,178.409 74.261,176.309C75.041,174.209 75.817,172.154 76.59,170.144C77.364,168.134 78.127,166.209 78.88,164.369C79.633,162.529 80.33,160.839 80.97,159.299C81.609,157.759 82.183,156.414 82.689,155.264C83.196,154.114 83.602,153.229 83.909,152.609ZM74.391,185.849C73.911,186.249 73.448,186.579 73.001,186.839C72.555,187.099 72.131,187.279 71.732,187.379C71.118,189.319 70.588,191.099 70.142,192.719C69.695,194.339 69.342,195.764 69.082,196.994C68.822,198.224 68.656,199.234 68.582,200.024C68.509,200.814 68.546,201.339 68.692,201.599C68.772,201.759 68.975,201.709 69.302,201.449C69.629,201.189 70.009,200.774 70.442,200.204C70.875,199.634 71.335,198.944 71.822,198.134C72.308,197.324 72.761,196.454 73.181,195.524C73.601,194.594 73.951,193.629 74.231,192.629C74.511,191.629 74.671,190.659 74.711,189.719C74.738,188.859 74.721,188.114 74.661,187.484C74.601,186.854 74.511,186.309 74.391,185.849ZM70.832,186.149C70.978,185.709 71.125,185.269 71.272,184.829C71.418,184.389 71.572,183.939 71.732,183.479C71.345,183.599 71.012,183.819 70.732,184.139C70.452,184.459 70.319,184.849 70.332,185.309C70.345,185.769 70.512,186.049 70.832,186.149ZM72.231,185.879C72.498,185.739 72.771,185.564 73.051,185.354C73.331,185.144 73.624,184.899 73.931,184.619C73.784,184.339 73.628,184.119 73.461,183.959C73.295,183.799 73.131,183.669 72.971,183.569L72.231,185.879Z" style="fill-rule:nonzero;"/>
            <path d="M82.729,173.009C82.756,172.969 82.822,172.854 82.929,172.664C83.036,172.474 83.166,172.254 83.319,172.004C83.472,171.754 83.639,171.499 83.819,171.239C83.999,170.979 84.179,170.769 84.359,170.609C84.539,170.449 84.705,170.359 84.859,170.339C85.012,170.319 85.135,170.419 85.229,170.639C85.389,171.039 85.415,171.414 85.309,171.764C85.202,172.114 85.049,172.429 84.849,172.709C84.649,172.989 84.442,173.229 84.229,173.429C84.016,173.629 83.876,173.779 83.809,173.879C83.236,174.699 82.796,175.504 82.489,176.294C82.183,177.084 81.976,177.819 81.869,178.499C81.789,178.979 81.759,179.429 81.779,179.849C81.799,180.269 81.873,180.629 81.999,180.929C82.126,181.229 82.306,181.454 82.539,181.604C82.773,181.754 83.069,181.809 83.429,181.769C84.189,181.669 84.899,181.279 85.559,180.599C86.218,179.919 86.795,179.099 87.288,178.139C87.222,178.139 87.135,178.119 87.028,178.079C86.562,177.939 86.185,177.694 85.898,177.344C85.612,176.994 85.392,176.599 85.239,176.159C85.085,175.719 84.992,175.269 84.959,174.809C84.925,174.349 84.929,173.919 84.969,173.519C85.022,173.099 85.129,172.679 85.289,172.259C85.449,171.839 85.655,171.454 85.908,171.104C86.162,170.754 86.455,170.469 86.788,170.249C87.122,170.029 87.481,169.899 87.868,169.859C88.188,169.819 88.495,169.869 88.788,170.009C89.081,170.149 89.328,170.389 89.528,170.729C89.728,171.069 89.864,171.514 89.938,172.064C90.011,172.614 89.988,173.279 89.868,174.059C89.841,174.219 89.811,174.384 89.778,174.554C89.744,174.724 89.701,174.909 89.648,175.109C89.581,175.389 89.501,175.674 89.408,175.964C89.314,176.254 89.214,176.549 89.108,176.849C89.588,176.769 90.084,176.624 90.597,176.414C91.111,176.204 91.611,175.949 92.097,175.649C92.584,175.349 93.04,175.014 93.467,174.644C93.893,174.274 94.26,173.879 94.567,173.459C94.673,173.319 94.777,173.254 94.877,173.264C94.977,173.274 95.053,173.334 95.107,173.444C95.16,173.554 95.19,173.694 95.197,173.864C95.203,174.034 95.167,174.199 95.087,174.359C94.887,174.779 94.55,175.199 94.077,175.619C93.604,176.039 93.06,176.429 92.447,176.789C91.834,177.149 91.184,177.454 90.498,177.704C89.811,177.954 89.168,178.109 88.568,178.169C88.275,178.809 87.945,179.419 87.578,179.999C87.212,180.579 86.808,181.099 86.368,181.559C85.928,182.019 85.459,182.389 84.959,182.669C84.459,182.949 83.929,183.099 83.369,183.119C82.916,183.119 82.509,183.029 82.149,182.849C81.789,182.669 81.489,182.394 81.249,182.024C81.01,181.654 80.846,181.184 80.76,180.614C80.673,180.044 80.676,179.379 80.77,178.619C80.876,177.739 81.093,176.819 81.419,175.859C81.746,174.899 82.183,173.949 82.729,173.009ZM85.849,174.269C85.835,175.129 86.015,175.764 86.388,176.174C86.762,176.584 87.248,176.829 87.848,176.909C88.128,176.209 88.341,175.549 88.488,174.929C88.608,174.429 88.691,173.964 88.738,173.534C88.785,173.104 88.788,172.729 88.748,172.409C88.708,172.089 88.621,171.844 88.488,171.674C88.355,171.504 88.168,171.429 87.928,171.449C87.608,171.509 87.322,171.649 87.068,171.869C86.815,172.089 86.598,172.344 86.418,172.634C86.238,172.924 86.098,173.219 85.998,173.519C85.898,173.819 85.849,174.069 85.849,174.269Z" style="fill-rule:nonzero;"/>
            <path d="M94.747,172.019C94.747,172.359 94.773,172.639 94.827,172.859C94.88,173.079 95.01,173.189 95.216,173.189C95.423,173.189 95.726,173.044 96.126,172.754C96.526,172.464 97.079,171.969 97.786,171.269C98.133,170.929 98.396,170.854 98.576,171.044C98.756,171.234 98.859,171.549 98.886,171.989C98.912,172.429 98.862,172.924 98.736,173.474C98.609,174.024 98.412,174.499 98.146,174.899C97.546,175.839 97.013,176.744 96.546,177.614C96.08,178.484 95.703,179.279 95.416,179.999C95.13,180.719 94.95,181.329 94.877,181.829C94.803,182.329 94.853,182.669 95.027,182.849C95.24,183.069 95.593,183.059 96.086,182.819C96.58,182.579 97.183,182.099 97.896,181.379C98.609,180.659 99.422,179.694 100.335,178.484C101.249,177.274 102.238,175.809 103.305,174.089C103.398,173.949 103.518,173.849 103.665,173.789C103.811,173.729 103.935,173.729 104.035,173.789C104.135,173.849 104.188,173.974 104.195,174.164C104.201,174.354 104.111,174.609 103.925,174.929C103.578,175.529 103.181,176.184 102.735,176.894C102.288,177.604 101.812,178.314 101.305,179.024C100.799,179.734 100.269,180.419 99.716,181.079C99.162,181.739 98.612,182.319 98.066,182.819C97.519,183.319 96.983,183.709 96.456,183.989C95.93,184.269 95.433,184.379 94.967,184.319C94.527,184.259 94.18,184.059 93.927,183.719C93.673,183.379 93.594,182.834 93.687,182.084C93.78,181.334 94.093,180.349 94.627,179.129C95.16,177.909 96,176.399 97.146,174.599C97.293,174.079 97.369,173.744 97.376,173.594C97.383,173.444 97.329,173.399 97.216,173.459C97.103,173.519 96.943,173.649 96.736,173.849C96.53,174.049 96.29,174.244 96.016,174.434C95.743,174.624 95.443,174.774 95.117,174.884C94.79,174.994 94.453,174.989 94.107,174.869C93.614,174.689 93.284,174.374 93.117,173.924C92.95,173.474 92.884,172.994 92.917,172.484C92.95,171.974 93.057,171.489 93.237,171.029C93.417,170.569 93.614,170.229 93.827,170.009C94.093,169.749 94.317,169.774 94.497,170.084C94.677,170.394 94.76,171.039 94.747,172.019Z" style="fill-rule:nonzero;"/>
            <path d="M115.982,168.749C116.529,168.689 116.958,168.769 117.272,168.989C117.585,169.209 117.815,169.494 117.962,169.844C118.108,170.194 118.195,170.564 118.222,170.954C118.248,171.344 118.255,171.689 118.242,171.989C118.215,172.389 118.118,172.679 117.952,172.859C117.785,173.039 117.605,173.129 117.412,173.129C117.218,173.129 117.042,173.054 116.882,172.904C116.722,172.754 116.642,172.539 116.642,172.259C116.642,172.099 116.645,171.884 116.652,171.614C116.659,171.344 116.642,171.089 116.602,170.849C116.562,170.609 116.475,170.429 116.342,170.309C116.209,170.189 115.995,170.189 115.702,170.309C114.889,170.669 114.146,171.169 113.473,171.809C112.799,172.449 112.213,173.149 111.713,173.909C111.213,174.669 110.806,175.439 110.493,176.219C110.18,176.999 109.973,177.714 109.873,178.364C109.773,179.014 109.787,179.554 109.913,179.984C110.04,180.414 110.297,180.649 110.683,180.689C111.043,180.729 111.433,180.639 111.853,180.419C112.273,180.199 112.686,179.909 113.093,179.549C113.499,179.189 113.876,178.799 114.222,178.379C114.569,177.959 114.849,177.579 115.062,177.239C115.182,176.819 115.342,176.369 115.542,175.889C115.622,175.609 115.719,175.299 115.832,174.959C115.945,174.619 116.079,174.324 116.232,174.074C116.385,173.824 116.562,173.644 116.762,173.534C116.962,173.424 117.188,173.459 117.442,173.639C117.575,173.739 117.665,173.859 117.712,173.999C117.758,174.139 117.775,174.279 117.762,174.419C117.815,174.619 117.788,174.779 117.682,174.899L117.482,175.169C117.082,175.929 116.682,176.619 116.282,177.239C116.015,177.839 115.842,178.379 115.762,178.859C115.682,179.339 115.659,179.749 115.692,180.089C115.725,180.429 115.792,180.704 115.892,180.914C115.992,181.124 116.095,181.239 116.202,181.259C116.549,181.359 116.958,181.254 117.432,180.944C117.905,180.634 118.402,180.214 118.921,179.684C119.441,179.154 119.961,178.559 120.481,177.899C121.001,177.239 121.474,176.609 121.901,176.009C122.327,175.409 122.691,174.889 122.991,174.449C123.29,174.009 123.48,173.749 123.56,173.669C123.8,173.409 124.007,173.319 124.18,173.399C124.354,173.479 124.374,173.739 124.24,174.179C124.174,174.379 123.967,174.759 123.62,175.319C123.274,175.879 122.841,176.519 122.321,177.239C121.801,177.959 121.224,178.689 120.591,179.429C119.958,180.169 119.325,180.814 118.691,181.364C118.058,181.914 117.455,182.309 116.882,182.549C116.309,182.789 115.822,182.759 115.422,182.459C115.156,182.279 114.942,181.944 114.782,181.454C114.622,180.964 114.562,180.349 114.602,179.609C113.962,180.369 113.323,180.949 112.683,181.349C112.043,181.749 111.376,181.949 110.683,181.949C110.257,181.949 109.917,181.879 109.663,181.739C109.41,181.599 109.213,181.414 109.074,181.184C108.934,180.954 108.84,180.699 108.794,180.419C108.747,180.139 108.717,179.879 108.704,179.639C108.69,178.879 108.794,178.084 109.014,177.254C109.233,176.424 109.53,175.614 109.903,174.824C110.277,174.034 110.713,173.284 111.213,172.574C111.713,171.864 112.236,171.234 112.783,170.684C113.329,170.134 113.879,169.684 114.432,169.334C114.986,168.984 115.502,168.789 115.982,168.749Z" style="fill-rule:nonzero;"/>
            <path d="M135.898,147.899C135.871,148.399 135.724,149.219 135.458,150.359C135.191,151.499 134.821,152.819 134.348,154.319C133.875,155.819 133.312,157.424 132.658,159.134C132.005,160.844 131.275,162.519 130.469,164.159C129.662,165.799 128.793,167.329 127.859,168.749C126.926,170.169 125.953,171.339 124.94,172.259C124.674,173.299 124.444,174.289 124.25,175.229C124.057,176.169 123.914,177.034 123.82,177.824C123.727,178.614 123.687,179.319 123.7,179.939C123.714,180.559 123.8,181.069 123.96,181.469C124.227,182.169 124.617,182.499 125.13,182.459C125.643,182.419 126.213,182.154 126.84,181.664C127.466,181.174 128.116,180.529 128.789,179.729C129.462,178.929 130.092,178.114 130.679,177.284C131.265,176.454 131.775,175.684 132.209,174.974C132.642,174.264 132.932,173.739 133.078,173.399C133.132,173.259 133.208,173.199 133.308,173.219C133.408,173.239 133.495,173.304 133.568,173.414C133.642,173.524 133.692,173.669 133.718,173.849C133.745,174.029 133.712,174.209 133.618,174.389C133.458,174.709 133.138,175.259 132.658,176.039C132.179,176.819 131.609,177.664 130.949,178.574C130.289,179.484 129.572,180.364 128.799,181.214C128.026,182.064 127.273,182.724 126.54,183.194C125.807,183.664 125.13,183.844 124.51,183.734C123.89,183.624 123.394,183.059 123.021,182.039C122.781,181.379 122.677,180.499 122.711,179.399C122.744,178.299 122.881,177.054 123.121,175.664C123.36,174.274 123.687,172.774 124.1,171.164C124.514,169.554 124.983,167.904 125.51,166.214C126.037,164.524 126.603,162.829 127.21,161.129C127.816,159.429 128.436,157.799 129.069,156.239C129.702,154.679 130.329,153.224 130.949,151.874C131.569,150.524 132.152,149.354 132.698,148.364C133.245,147.374 133.738,146.594 134.178,146.024C134.618,145.454 134.978,145.169 135.258,145.169C135.405,145.169 135.521,145.249 135.608,145.409C135.694,145.569 135.764,145.779 135.818,146.039C135.871,146.299 135.901,146.594 135.908,146.924C135.914,147.254 135.911,147.579 135.898,147.899ZM134.838,147.059C134.705,147.079 134.455,147.424 134.088,148.094C133.722,148.764 133.278,149.659 132.758,150.779C132.239,151.899 131.669,153.204 131.049,154.694C130.429,156.184 129.802,157.769 129.169,159.449C128.536,161.129 127.913,162.854 127.3,164.624C126.686,166.394 126.133,168.119 125.64,169.799C126.6,168.799 127.513,167.544 128.379,166.034C129.246,164.524 130.042,162.919 130.769,161.219C131.495,159.519 132.142,157.824 132.708,156.134C133.275,154.444 133.738,152.919 134.098,151.559C134.458,150.199 134.705,149.104 134.838,148.274C134.971,147.444 134.971,147.039 134.838,147.059Z" style="fill-rule:nonzero;"/>
            <path d="M145.256,147.899C145.229,148.399 145.082,149.219 144.816,150.359C144.549,151.499 144.179,152.819 143.706,154.319C143.233,155.819 142.67,157.424 142.016,159.134C141.363,160.844 140.633,162.519 139.827,164.159C139.02,165.799 138.151,167.329 137.217,168.749C136.284,170.169 135.311,171.339 134.298,172.259C134.031,173.299 133.802,174.289 133.608,175.229C133.415,176.169 133.272,177.034 133.178,177.824C133.085,178.614 133.045,179.319 133.058,179.939C133.072,180.559 133.158,181.069 133.318,181.469C133.585,182.169 133.975,182.499 134.488,182.459C135.001,182.419 135.571,182.154 136.198,181.664C136.824,181.174 137.474,180.529 138.147,179.729C138.82,178.929 139.45,178.114 140.037,177.284C140.623,176.454 141.133,175.684 141.567,174.974C142,174.264 142.29,173.739 142.436,173.399C142.49,173.259 142.566,173.199 142.666,173.219C142.766,173.239 142.853,173.304 142.926,173.414C143,173.524 143.05,173.669 143.076,173.849C143.103,174.029 143.07,174.209 142.976,174.389C142.816,174.709 142.496,175.259 142.016,176.039C141.537,176.819 140.967,177.664 140.307,178.574C139.647,179.484 138.93,180.364 138.157,181.214C137.384,182.064 136.631,182.724 135.898,183.194C135.165,183.664 134.488,183.844 133.868,183.734C133.248,183.624 132.752,183.059 132.379,182.039C132.139,181.379 132.035,180.499 132.069,179.399C132.102,178.299 132.239,177.054 132.478,175.664C132.718,174.274 133.045,172.774 133.458,171.164C133.872,169.554 134.341,167.904 134.868,166.214C135.395,164.524 135.961,162.829 136.568,161.129C137.174,159.429 137.794,157.799 138.427,156.239C139.06,154.679 139.687,153.224 140.307,151.874C140.927,150.524 141.51,149.354 142.056,148.364C142.603,147.374 143.096,146.594 143.536,146.024C143.976,145.454 144.336,145.169 144.616,145.169C144.763,145.169 144.879,145.249 144.966,145.409C145.052,145.569 145.122,145.779 145.176,146.039C145.229,146.299 145.259,146.594 145.266,146.924C145.272,147.254 145.269,147.579 145.256,147.899ZM144.196,147.059C144.063,147.079 143.813,147.424 143.446,148.094C143.08,148.764 142.636,149.659 142.116,150.779C141.597,151.899 141.027,153.204 140.407,154.694C139.787,156.184 139.16,157.769 138.527,159.449C137.894,161.129 137.271,162.854 136.658,164.624C136.044,166.394 135.491,168.119 134.998,169.799C135.958,168.799 136.871,167.544 137.737,166.034C138.604,164.524 139.4,162.919 140.127,161.219C140.853,159.519 141.5,157.824 142.066,156.134C142.633,154.444 143.096,152.919 143.456,151.559C143.816,150.199 144.063,149.104 144.196,148.274C144.329,147.444 144.329,147.039 144.196,147.059Z" style="fill-rule:nonzero;"/>
            <path d="M169.83,152.909C170.444,152.969 170.947,153.159 171.34,153.479C171.733,153.799 171.953,154.119 172,154.439C172.047,154.759 171.89,155.034 171.53,155.264C171.17,155.494 170.544,155.549 169.651,155.429C169.451,155.409 169.241,155.339 169.021,155.219C168.801,155.099 168.584,154.979 168.371,154.859C168.158,154.739 167.964,154.629 167.791,154.529C167.618,154.429 167.478,154.369 167.371,154.349C165.425,154.089 163.592,154.019 161.872,154.139C160.153,154.259 158.56,154.479 157.093,154.799C156.2,156.739 155.35,158.799 154.544,160.979C153.737,163.159 153.007,165.314 152.354,167.444C151.701,169.574 151.141,171.604 150.675,173.534C150.208,175.464 149.871,177.149 149.665,178.589C149.458,180.029 149.398,181.164 149.485,181.994C149.571,182.824 149.841,183.189 150.295,183.089C150.735,183.009 151.221,182.739 151.754,182.279C152.288,181.819 152.834,181.264 153.394,180.614C153.954,179.964 154.504,179.269 155.044,178.529C155.584,177.789 156.07,177.094 156.503,176.444C156.937,175.794 157.3,175.239 157.593,174.779C157.886,174.319 158.066,174.039 158.133,173.939C158.24,173.799 158.333,173.724 158.413,173.714C158.493,173.704 158.563,173.729 158.623,173.789C158.683,173.849 158.726,173.929 158.753,174.029C158.78,174.129 158.793,174.219 158.793,174.299C158.793,174.359 158.646,174.654 158.353,175.184C158.06,175.714 157.67,176.364 157.183,177.134C156.697,177.904 156.14,178.729 155.514,179.609C154.887,180.489 154.234,181.304 153.554,182.054C152.874,182.804 152.194,183.434 151.514,183.944C150.835,184.454 150.208,184.709 149.635,184.709C149.168,184.709 148.828,184.439 148.615,183.899C148.402,183.359 148.292,182.614 148.285,181.664C148.278,180.714 148.368,179.594 148.555,178.304C148.742,177.014 148.995,175.619 149.315,174.119C149.635,172.619 150.015,171.049 150.455,169.409C150.895,167.769 151.374,166.129 151.894,164.489C152.414,162.849 152.957,161.244 153.524,159.674C154.091,158.104 154.667,156.629 155.254,155.249C154.254,155.529 153.351,155.824 152.544,156.134C151.738,156.444 151.041,156.729 150.455,156.989C149.868,157.249 149.405,157.469 149.065,157.649C148.725,157.829 148.522,157.929 148.455,157.949C148.188,158.009 147.992,157.959 147.865,157.799C147.739,157.639 147.675,157.439 147.675,157.199C147.675,156.959 147.725,156.724 147.825,156.494C147.925,156.264 148.075,156.099 148.275,155.999C148.342,155.979 148.562,155.884 148.935,155.714C149.308,155.544 149.825,155.339 150.485,155.099C151.144,154.859 151.934,154.609 152.854,154.349C153.774,154.089 154.814,153.839 155.973,153.599C156.227,153.059 156.47,152.544 156.703,152.054C156.937,151.564 157.173,151.109 157.413,150.689C157.56,150.429 157.73,150.284 157.923,150.254C158.116,150.224 158.286,150.269 158.433,150.389C158.58,150.509 158.683,150.684 158.743,150.914C158.803,151.144 158.773,151.369 158.653,151.589L157.813,153.269C159.493,152.989 161.336,152.804 163.342,152.714C165.348,152.624 167.511,152.689 169.83,152.909Z" style="fill-rule:nonzero;"/>
            <path d="M164.392,168.389C164.685,168.289 164.902,168.359 165.042,168.599C165.181,168.839 165.251,169.209 165.251,169.709C165.251,169.869 165.205,170.219 165.111,170.759C165.018,171.299 164.898,171.939 164.752,172.679C164.605,173.419 164.445,174.204 164.272,175.034C164.098,175.864 163.932,176.649 163.772,177.389C163.612,178.129 163.472,178.779 163.352,179.339C163.232,179.899 163.159,180.269 163.132,180.449C163.079,180.729 163.055,180.944 163.062,181.094C163.069,181.244 163.099,181.344 163.152,181.394C163.205,181.444 163.269,181.459 163.342,181.439C163.415,181.419 163.499,181.389 163.592,181.349C163.765,181.269 164.028,181.029 164.382,180.629C164.735,180.229 165.135,179.749 165.581,179.189C166.028,178.629 166.491,178.024 166.971,177.374C167.451,176.724 167.898,176.109 168.311,175.529C168.724,174.949 169.077,174.439 169.371,173.999C169.664,173.559 169.85,173.269 169.93,173.129C170.05,172.929 170.174,172.819 170.3,172.799C170.427,172.779 170.527,172.824 170.6,172.934C170.674,173.044 170.7,173.209 170.68,173.429C170.66,173.649 170.564,173.879 170.39,174.119C170.324,174.199 170.137,174.459 169.83,174.899C169.524,175.339 169.151,175.874 168.711,176.504C168.271,177.134 167.791,177.809 167.271,178.529C166.751,179.249 166.245,179.929 165.751,180.569C165.258,181.209 164.802,181.769 164.382,182.249C163.962,182.729 163.638,183.039 163.412,183.179C163.092,183.359 162.839,183.454 162.652,183.464C162.465,183.474 162.322,183.434 162.222,183.344C162.122,183.254 162.052,183.134 162.012,182.984C161.972,182.834 161.946,182.679 161.932,182.519C161.866,181.959 161.872,181.279 161.952,180.479C162.032,179.679 162.155,178.839 162.322,177.959C162.489,177.079 162.675,176.204 162.882,175.334C163.089,174.464 163.275,173.674 163.442,172.964C163.608,172.254 163.742,171.664 163.842,171.194C163.942,170.724 163.972,170.449 163.932,170.369C163.865,170.269 163.675,170.404 163.362,170.774C163.049,171.144 162.662,171.684 162.202,172.394C161.742,173.104 161.236,173.949 160.682,174.929C160.129,175.909 159.586,176.949 159.053,178.049C158.52,179.149 158.02,180.269 157.553,181.409C157.087,182.549 156.713,183.639 156.433,184.679C156.367,185.019 156.31,185.344 156.263,185.654C156.217,185.964 156.18,186.259 156.153,186.539C156.18,186.839 156.137,187.074 156.023,187.244C155.91,187.414 155.783,187.509 155.644,187.529C155.504,187.549 155.38,187.479 155.274,187.319C155.167,187.159 155.14,186.889 155.194,186.509C155.34,185.489 155.597,184.049 155.963,182.189C156.33,180.329 156.93,177.999 157.763,175.199C158.596,172.399 159.723,169.099 161.142,165.299C162.562,161.499 164.392,157.129 166.631,152.189C166.711,152.009 166.821,151.744 166.961,151.394C167.101,151.044 167.254,150.669 167.421,150.269C167.588,149.869 167.768,149.474 167.961,149.084C168.154,148.694 168.351,148.379 168.551,148.139C168.764,147.859 168.991,147.699 169.231,147.659C169.471,147.619 169.674,147.674 169.84,147.824C170.007,147.974 170.11,148.209 170.15,148.529C170.19,148.849 170.13,149.239 169.97,149.699C169.837,150.079 169.691,150.409 169.531,150.689C169.371,150.969 169.184,151.264 168.971,151.574C168.757,151.884 168.514,152.259 168.241,152.699C167.968,153.139 167.651,153.719 167.291,154.439C166.291,156.419 165.355,158.389 164.482,160.349C163.608,162.309 162.809,164.224 162.082,166.094C161.356,167.964 160.692,169.769 160.093,171.509C159.493,173.249 158.959,174.889 158.493,176.429C158.933,175.649 159.433,174.814 159.993,173.924C160.552,173.034 161.109,172.199 161.662,171.419C162.215,170.639 162.735,169.969 163.222,169.409C163.708,168.849 164.098,168.509 164.392,168.389Z" style="fill-rule:nonzero;"/>
            <path d="M172.75,168.629C172.99,168.669 173.163,168.784 173.27,168.974C173.376,169.164 173.436,169.384 173.45,169.634C173.463,169.884 173.446,170.134 173.4,170.384C173.353,170.634 173.296,170.829 173.23,170.969C173.163,171.129 173.013,171.369 172.78,171.689C172.547,172.009 172.297,172.339 172.03,172.679C171.763,173.019 171.52,173.344 171.3,173.654C171.08,173.964 170.944,174.189 170.89,174.329C170.05,176.309 169.481,177.869 169.181,179.009C168.881,180.149 168.737,180.999 168.751,181.559C168.764,182.119 168.864,182.464 169.051,182.594C169.237,182.724 169.397,182.769 169.531,182.729C169.744,182.669 170.044,182.474 170.43,182.144C170.817,181.814 171.254,181.394 171.74,180.884C172.227,180.374 172.747,179.799 173.3,179.159C173.853,178.519 174.403,177.854 174.949,177.164C175.496,176.474 176.019,175.789 176.519,175.109C177.019,174.429 177.462,173.789 177.849,173.189C177.929,173.069 178.005,173.019 178.079,173.039C178.152,173.059 178.215,173.119 178.269,173.219C178.322,173.319 178.352,173.444 178.359,173.594C178.365,173.744 178.335,173.889 178.269,174.029C178.135,174.309 177.875,174.744 177.489,175.334C177.102,175.924 176.636,176.584 176.089,177.314C175.543,178.044 174.953,178.799 174.32,179.579C173.686,180.359 173.056,181.079 172.43,181.739C171.803,182.399 171.217,182.954 170.67,183.404C170.124,183.854 169.664,184.109 169.291,184.169C168.891,184.249 168.571,184.119 168.331,183.779C168.091,183.439 167.951,182.909 167.911,182.189C167.871,181.649 167.908,181.029 168.021,180.329C168.134,179.629 168.281,178.914 168.461,178.184C168.641,177.454 168.844,176.734 169.071,176.024C169.297,175.314 169.517,174.664 169.731,174.074C169.944,173.484 170.127,172.989 170.28,172.589C170.434,172.189 170.53,171.929 170.57,171.809C170.637,171.609 170.744,171.319 170.89,170.939C171.037,170.559 171.204,170.194 171.39,169.844C171.577,169.494 171.787,169.194 172.02,168.944C172.253,168.694 172.497,168.589 172.75,168.629ZM175.549,163.259C175.656,163.139 175.786,163.009 175.939,162.869C176.092,162.729 176.249,162.619 176.409,162.539C176.569,162.459 176.719,162.429 176.859,162.449C176.999,162.469 177.102,162.579 177.169,162.779C177.222,162.999 177.189,163.309 177.069,163.709C176.962,164.049 176.792,164.424 176.559,164.834C176.326,165.244 176.069,165.634 175.789,166.004C175.509,166.374 175.223,166.699 174.929,166.979C174.636,167.259 174.376,167.429 174.15,167.489C174.003,167.549 173.89,167.554 173.81,167.504C173.73,167.454 173.67,167.384 173.63,167.294C173.59,167.204 173.57,167.109 173.57,167.009L173.57,166.769C173.596,166.589 173.673,166.349 173.8,166.049C173.926,165.749 174.083,165.434 174.27,165.104C174.456,164.774 174.659,164.444 174.879,164.114C175.099,163.784 175.323,163.499 175.549,163.259Z" style="fill-rule:nonzero;"/>
            <path d="M180.408,168.959C180.808,168.999 181.031,169.154 181.078,169.424C181.125,169.694 181.078,170.009 180.938,170.369C180.798,170.729 180.602,171.094 180.348,171.464C180.095,171.834 179.868,172.129 179.668,172.349C179.562,172.489 179.392,172.799 179.158,173.279C178.925,173.759 178.675,174.319 178.409,174.959C178.142,175.599 177.875,176.264 177.609,176.954C177.342,177.644 177.122,178.254 176.949,178.784C176.776,179.314 176.666,179.714 176.619,179.984C176.572,180.254 176.636,180.289 176.809,180.089C177.555,178.909 178.255,177.829 178.909,176.849C179.188,176.429 179.475,176.009 179.768,175.589C180.062,175.169 180.342,174.779 180.608,174.419C180.875,174.059 181.118,173.744 181.338,173.474C181.558,173.204 181.741,173.009 181.888,172.889C182.181,172.629 182.454,172.499 182.708,172.499C182.961,172.499 183.184,172.594 183.378,172.784C183.571,172.974 183.724,173.244 183.837,173.594C183.951,173.944 184.021,174.329 184.047,174.749C184.061,174.889 184.024,175.214 183.937,175.724C183.851,176.234 183.757,176.824 183.658,177.494C183.558,178.164 183.464,178.869 183.378,179.609C183.291,180.349 183.251,181.024 183.258,181.634C183.264,182.244 183.331,182.754 183.458,183.164C183.584,183.574 183.807,183.769 184.127,183.749C184.301,183.749 184.554,183.594 184.887,183.284C185.221,182.974 185.6,182.564 186.027,182.054C186.454,181.544 186.913,180.959 187.407,180.299C187.9,179.639 188.39,178.944 188.876,178.214C189.363,177.484 189.83,176.749 190.276,176.009C190.723,175.269 191.119,174.569 191.466,173.909C191.612,173.629 191.752,173.484 191.886,173.474C192.019,173.464 192.126,173.524 192.206,173.654C192.286,173.784 192.326,173.959 192.326,174.179C192.326,174.399 192.266,174.599 192.146,174.779C192.132,174.799 191.959,175.079 191.626,175.619C191.293,176.159 190.873,176.829 190.366,177.629C189.86,178.429 189.29,179.289 188.656,180.209C188.023,181.129 187.4,181.984 186.787,182.774C186.174,183.564 185.597,184.219 185.057,184.739C184.517,185.259 184.081,185.509 183.747,185.489C183.148,185.469 182.738,185.179 182.518,184.619C182.298,184.059 182.184,183.369 182.178,182.549C182.171,181.729 182.231,180.849 182.358,179.909C182.484,178.969 182.598,178.104 182.698,177.314C182.798,176.524 182.838,175.884 182.818,175.394C182.798,174.904 182.641,174.689 182.348,174.749C182.081,174.809 181.761,175.029 181.388,175.409C181.015,175.789 180.621,176.244 180.208,176.774C179.795,177.304 179.382,177.874 178.969,178.484C178.555,179.094 178.175,179.674 177.829,180.224C177.482,180.774 177.182,181.244 176.929,181.634C176.676,182.024 176.502,182.269 176.409,182.369C176.262,182.509 176.129,182.579 176.009,182.579C175.889,182.579 175.779,182.534 175.679,182.444C175.579,182.354 175.499,182.239 175.439,182.099C175.379,181.959 175.343,181.819 175.329,181.679C175.303,181.359 175.353,180.914 175.479,180.344C175.606,179.774 175.773,179.154 175.979,178.484C176.186,177.814 176.419,177.119 176.679,176.399C176.939,175.679 177.182,175.014 177.409,174.404C177.635,173.794 177.832,173.264 177.999,172.814C178.165,172.364 178.269,172.069 178.309,171.929C178.362,171.689 178.462,171.399 178.609,171.059C178.755,170.719 178.925,170.389 179.118,170.069C179.312,169.749 179.518,169.479 179.738,169.259C179.958,169.039 180.182,168.939 180.408,168.959Z" style="fill-rule:nonzero;"/>
            <path d="M196.845,168.659C197.378,168.599 197.801,168.679 198.114,168.899C198.428,169.119 198.661,169.399 198.814,169.739C198.968,170.079 199.058,170.444 199.084,170.834C199.111,171.224 199.118,171.569 199.104,171.869C199.078,172.269 199.004,172.569 198.884,172.769C198.764,172.969 198.641,173.079 198.514,173.099C198.388,173.119 198.271,173.059 198.164,172.919C198.058,172.779 198.004,172.569 198.004,172.289C198.004,172.129 197.981,171.899 197.934,171.599C197.888,171.299 197.814,171.009 197.714,170.729C197.615,170.449 197.485,170.229 197.325,170.069C197.165,169.909 196.978,169.879 196.765,169.979C195.912,170.399 195.128,170.989 194.415,171.749C193.702,172.509 193.082,173.329 192.556,174.209C192.029,175.089 191.602,175.989 191.276,176.909C190.949,177.829 190.743,178.664 190.656,179.414C190.569,180.164 190.613,180.784 190.786,181.274C190.959,181.764 191.286,182.019 191.766,182.039C192.206,182.059 192.642,181.949 193.075,181.709C193.509,181.469 193.905,181.179 194.265,180.839C194.625,180.499 194.925,180.154 195.165,179.804C195.405,179.454 195.552,179.169 195.605,178.949C195.658,178.729 195.748,178.424 195.875,178.034C196.002,177.644 196.158,177.284 196.345,176.954C196.531,176.624 196.748,176.379 196.995,176.219C197.241,176.059 197.518,176.079 197.824,176.279C197.971,176.399 198.064,176.544 198.104,176.714C198.144,176.884 198.151,177.049 198.124,177.209C198.111,177.309 198.078,177.399 198.024,177.479L197.724,178.019L197.125,179.339C197.031,179.999 197.045,180.529 197.165,180.929C197.285,181.329 197.418,181.549 197.565,181.589C197.898,181.689 198.318,181.579 198.824,181.259C199.331,180.939 199.861,180.509 200.414,179.969C200.967,179.429 201.527,178.819 202.094,178.139C202.66,177.459 203.18,176.809 203.653,176.189C204.126,175.569 204.523,175.039 204.843,174.599C205.163,174.159 205.363,173.889 205.443,173.789C205.683,173.529 205.889,173.444 206.063,173.534C206.236,173.624 206.256,173.889 206.123,174.329C206.056,174.509 205.839,174.884 205.473,175.454C205.106,176.024 204.646,176.664 204.093,177.374C203.54,178.084 202.93,178.809 202.264,179.549C201.597,180.289 200.93,180.934 200.264,181.484C199.597,182.034 198.968,182.429 198.374,182.669C197.781,182.909 197.285,182.879 196.885,182.579C196.591,182.379 196.378,182.029 196.245,181.529C195.818,182.669 195.392,183.854 194.965,185.084C194.539,186.314 194.112,187.569 193.685,188.849C194.112,188.869 194.532,188.944 194.945,189.074C195.358,189.204 195.742,189.404 196.095,189.674C196.448,189.944 196.771,190.294 197.065,190.724C197.358,191.154 197.598,191.679 197.784,192.299C197.971,192.879 198.041,193.389 197.994,193.829C197.948,194.269 197.848,194.589 197.694,194.789C197.541,194.989 197.365,195.054 197.165,194.984C196.965,194.914 196.798,194.669 196.665,194.249C196.478,193.609 196.285,193.034 196.085,192.524C195.885,192.014 195.655,191.579 195.395,191.219C195.135,190.859 194.835,190.579 194.495,190.379C194.155,190.179 193.759,190.059 193.305,190.019C192.839,191.399 192.372,192.769 191.906,194.129C191.439,195.489 190.959,196.784 190.466,198.014C189.973,199.244 189.47,200.384 188.956,201.434C188.443,202.484 187.907,203.399 187.347,204.179C186.787,204.959 186.204,205.574 185.597,206.024C184.991,206.474 184.354,206.709 183.688,206.729C183.128,206.749 182.684,206.649 182.358,206.429C182.031,206.209 181.778,205.924 181.598,205.574C181.418,205.224 181.298,204.839 181.238,204.419C181.178,203.999 181.141,203.609 181.128,203.249C181.101,202.389 181.201,201.464 181.428,200.474C181.655,199.484 181.998,198.484 182.458,197.474C182.918,196.464 183.481,195.479 184.147,194.519C184.814,193.559 185.57,192.689 186.417,191.909C187.263,191.129 188.197,190.474 189.216,189.944C190.236,189.414 191.319,189.069 192.466,188.909C192.492,188.889 192.546,188.879 192.626,188.879C193.065,187.559 193.479,186.294 193.865,185.084C194.252,183.874 194.605,182.779 194.925,181.799C194.312,182.379 193.739,182.784 193.205,183.014C192.672,183.244 192.192,183.339 191.766,183.299C191.339,183.259 190.999,183.139 190.746,182.939C190.493,182.739 190.296,182.504 190.156,182.234C190.016,181.964 189.923,181.674 189.876,181.364C189.83,181.054 189.806,180.779 189.806,180.539C189.78,179.619 189.863,178.689 190.056,177.749C190.249,176.809 190.526,175.909 190.886,175.049C191.246,174.189 191.669,173.379 192.156,172.619C192.642,171.859 193.152,171.194 193.685,170.624C194.219,170.054 194.755,169.594 195.295,169.244C195.835,168.894 196.351,168.699 196.845,168.659ZM183.887,205.409C184.554,205.349 185.244,204.859 185.957,203.939C186.67,203.019 187.387,201.839 188.107,200.399C188.826,198.959 189.533,197.339 190.226,195.539C190.919,193.739 191.579,191.929 192.206,190.109C191.206,190.289 190.259,190.639 189.366,191.159C188.473,191.679 187.647,192.309 186.887,193.049C186.127,193.789 185.444,194.589 184.837,195.449C184.231,196.309 183.717,197.179 183.298,198.059C182.878,198.939 182.558,199.779 182.338,200.579C182.118,201.379 182.015,202.079 182.028,202.679C182.055,203.779 182.238,204.519 182.578,204.899C182.918,205.279 183.354,205.449 183.887,205.409Z" style="fill-rule:nonzero;"/>
            <path d="M207.842,168.149C208.202,167.629 208.536,167.349 208.842,167.309C209.149,167.269 209.382,167.354 209.542,167.564C209.702,167.774 209.759,168.059 209.712,168.419C209.665,168.779 209.469,169.089 209.122,169.349C208.242,170.009 207.612,170.629 207.232,171.209C206.853,171.789 206.636,172.339 206.583,172.859C206.529,173.379 206.606,173.889 206.813,174.389C207.019,174.889 207.262,175.404 207.542,175.934C207.822,176.464 208.102,177.024 208.382,177.614C208.662,178.204 208.855,178.839 208.962,179.519C209.455,179.339 209.965,179.119 210.492,178.859C211.018,178.599 211.542,178.269 212.061,177.869C212.581,177.469 213.101,176.994 213.621,176.444C214.141,175.894 214.654,175.239 215.161,174.479C215.281,174.299 215.401,174.199 215.521,174.179C215.641,174.159 215.741,174.184 215.821,174.254C215.901,174.324 215.944,174.444 215.951,174.614C215.957,174.784 215.901,174.969 215.781,175.169C215.301,176.029 214.787,176.779 214.241,177.419C213.694,178.059 213.131,178.614 212.551,179.084C211.971,179.554 211.378,179.954 210.772,180.284C210.165,180.614 209.575,180.889 209.002,181.109C209.002,181.189 208.989,181.329 208.962,181.529C208.829,182.349 208.625,183.044 208.352,183.614C208.079,184.184 207.776,184.649 207.442,185.009C207.109,185.369 206.763,185.644 206.403,185.834C206.043,186.024 205.706,186.159 205.393,186.239C205.08,186.319 204.81,186.364 204.583,186.374C204.356,186.384 204.21,186.389 204.143,186.389C203.837,186.389 203.567,186.309 203.333,186.149C203.1,185.989 202.903,185.799 202.743,185.579C202.583,185.359 202.46,185.124 202.373,184.874C202.287,184.624 202.244,184.419 202.244,184.259C202.244,183.339 202.39,182.629 202.683,182.129C202.977,181.629 203.38,181.249 203.893,180.989C204.406,180.729 205.01,180.529 205.703,180.389C206.396,180.249 207.142,180.069 207.942,179.849C207.756,178.989 207.516,178.264 207.222,177.674C206.929,177.084 206.649,176.549 206.383,176.069C206.116,175.589 205.896,175.119 205.723,174.659C205.549,174.199 205.489,173.674 205.543,173.084C205.596,172.494 205.796,171.809 206.143,171.029C206.489,170.249 207.056,169.289 207.842,168.149ZM204.043,184.799C204.47,184.899 204.89,184.854 205.303,184.664C205.716,184.474 206.099,184.209 206.453,183.869C206.806,183.529 207.112,183.144 207.372,182.714C207.632,182.284 207.822,181.869 207.942,181.469C207.276,181.689 206.653,181.869 206.073,182.009C205.493,182.149 204.986,182.299 204.553,182.459C204.12,182.619 203.78,182.804 203.533,183.014C203.287,183.224 203.163,183.499 203.163,183.839C203.163,184.359 203.457,184.679 204.043,184.799Z" style="fill-rule:nonzero;"/>
            <path d="M224.839,163.079C224.905,162.819 225.009,162.604 225.149,162.434C225.289,162.264 225.472,162.179 225.698,162.179C226.112,162.179 226.392,162.479 226.538,163.079L225.898,168.059L225.499,168.059L224.839,163.079ZM222.439,163.079C222.506,162.819 222.609,162.604 222.749,162.434C222.889,162.264 223.072,162.179 223.299,162.179C223.712,162.179 223.992,162.479 224.139,163.079L223.499,168.059L223.099,168.059L222.439,163.079Z" style="fill-rule:nonzero;"/>
            <path d="M243.235,146.729C243.555,146.529 243.835,146.479 244.075,146.579C244.314,146.679 244.508,146.864 244.654,147.134C244.801,147.404 244.901,147.739 244.954,148.139C245.008,148.539 245.008,148.949 244.954,149.369C244.781,150.649 244.494,152.114 244.095,153.764C243.695,155.414 243.211,157.164 242.645,159.014C242.078,160.864 241.435,162.784 240.715,164.774C239.995,166.764 239.229,168.744 238.416,170.714C237.603,172.684 236.759,174.599 235.886,176.459C235.013,178.319 234.137,180.059 233.257,181.679C233.377,181.739 233.517,181.789 233.677,181.829C233.837,181.869 234.01,181.889 234.197,181.889C234.543,181.889 234.783,182.004 234.917,182.234C235.05,182.464 235.093,182.714 235.046,182.984C235,183.254 234.873,183.504 234.667,183.734C234.46,183.964 234.19,184.079 233.857,184.079C233.27,184.079 232.737,183.859 232.257,183.419C231.577,184.559 230.911,185.599 230.258,186.539C229.604,187.479 228.971,188.274 228.358,188.924C227.745,189.574 227.162,190.069 226.608,190.409C226.055,190.749 225.539,190.899 225.059,190.859C224.565,190.819 224.142,190.594 223.789,190.184C223.436,189.774 223.159,189.279 222.959,188.699C222.759,188.119 222.636,187.484 222.589,186.794C222.542,186.104 222.572,185.444 222.679,184.814C222.786,184.184 222.966,183.629 223.219,183.149C223.472,182.669 223.799,182.349 224.199,182.189C224.399,182.109 224.569,182.119 224.709,182.219C224.849,182.319 224.955,182.459 225.029,182.639C225.102,182.819 225.129,183.024 225.109,183.254C225.089,183.484 225.019,183.699 224.899,183.899C224.779,184.099 224.689,184.379 224.629,184.739C224.569,185.099 224.535,185.479 224.529,185.879C224.522,186.279 224.529,186.664 224.549,187.034C224.569,187.404 224.599,187.699 224.639,187.919C224.692,188.199 224.795,188.464 224.949,188.714C225.102,188.964 225.299,189.079 225.539,189.059C226.258,189.019 227.125,188.409 228.138,187.229C229.151,186.049 230.258,184.399 231.457,182.279C231.377,182.099 231.304,181.919 231.237,181.739C231.171,181.559 231.117,181.359 231.077,181.139C230.837,180.099 230.721,178.874 230.727,177.464C230.734,176.054 230.854,174.534 231.087,172.904C231.321,171.274 231.651,169.579 232.077,167.819C232.504,166.059 233.01,164.304 233.597,162.554C234.183,160.804 234.837,159.104 235.556,157.454C236.276,155.804 237.049,154.279 237.876,152.879C238.702,151.479 239.566,150.249 240.465,149.189C241.365,148.129 242.288,147.309 243.235,146.729ZM232.077,177.359C232.077,177.939 232.09,178.504 232.117,179.054C232.144,179.604 232.23,180.099 232.377,180.539C233.257,178.839 234.167,176.914 235.106,174.764C236.046,172.614 236.996,170.279 237.956,167.759C238.916,165.239 239.872,162.549 240.825,159.689C241.778,156.829 242.708,153.829 243.615,150.689C243.681,150.469 243.725,150.199 243.745,149.879C243.765,149.559 243.735,149.294 243.655,149.084C243.575,148.874 243.441,148.764 243.255,148.754C243.068,148.744 242.795,148.929 242.435,149.309C242.035,149.749 241.498,150.424 240.825,151.334C240.152,152.244 239.432,153.349 238.666,154.649C237.899,155.949 237.123,157.424 236.336,159.074C235.55,160.724 234.84,162.514 234.207,164.444C233.573,166.374 233.057,168.424 232.657,170.594C232.257,172.764 232.064,175.019 232.077,177.359Z" style="fill-rule:nonzero;"/>
            <path d="M252.153,168.179C252.699,168.119 253.149,168.184 253.503,168.374C253.856,168.564 254.129,168.829 254.322,169.169C254.516,169.509 254.642,169.894 254.702,170.324C254.762,170.754 254.786,171.179 254.772,171.599C254.759,172.019 254.716,172.404 254.642,172.754C254.569,173.104 254.492,173.369 254.412,173.549C254.292,173.829 254.136,174.044 253.942,174.194C253.749,174.344 253.569,174.414 253.403,174.404C253.236,174.394 253.103,174.279 253.003,174.059C252.903,173.839 252.893,173.489 252.973,173.009C252.999,172.809 253.063,172.499 253.163,172.079C253.263,171.659 253.319,171.254 253.333,170.864C253.346,170.474 253.279,170.159 253.133,169.919C252.986,169.679 252.679,169.639 252.213,169.799C251.76,169.959 251.336,170.244 250.943,170.654C250.55,171.064 250.187,171.544 249.853,172.094C249.52,172.644 249.223,173.224 248.963,173.834C248.704,174.444 248.48,175.024 248.294,175.574C248.107,176.124 247.96,176.604 247.854,177.014C247.747,177.424 247.68,177.709 247.654,177.869C247.48,178.889 247.527,179.594 247.794,179.984C248.06,180.374 248.437,180.519 248.924,180.419C249.41,180.319 249.963,179.999 250.583,179.459C251.203,178.919 251.773,178.219 252.293,177.359C252.573,176.899 252.906,176.359 253.293,175.739C253.679,175.119 254.086,174.449 254.512,173.729C254.899,171.969 255.349,170.094 255.862,168.104C256.375,166.114 256.922,164.134 257.502,162.164C258.082,160.194 258.678,158.304 259.291,156.494C259.904,154.684 260.501,153.099 261.081,151.739C261.661,150.379 262.211,149.304 262.731,148.514C263.25,147.724 263.704,147.349 264.09,147.389C264.45,147.449 264.73,147.864 264.93,148.634C265.13,149.404 265.197,150.339 265.13,151.439C265.037,152.879 264.773,154.374 264.34,155.924C263.907,157.474 263.38,159.009 262.761,160.529C262.141,162.049 261.467,163.519 260.741,164.939C260.014,166.359 259.308,167.669 258.621,168.869C257.935,170.069 257.305,171.134 256.732,172.064C256.159,172.994 255.725,173.709 255.432,174.209C255.152,175.469 254.926,176.624 254.752,177.674C254.579,178.724 254.472,179.634 254.432,180.404C254.392,181.174 254.422,181.769 254.522,182.189C254.622,182.609 254.812,182.809 255.092,182.789C255.372,182.749 255.729,182.514 256.162,182.084C256.595,181.654 257.055,181.134 257.542,180.524C258.028,179.914 258.515,179.254 259.001,178.544C259.488,177.834 259.931,177.174 260.331,176.564C260.731,175.954 261.068,175.429 261.341,174.989C261.614,174.549 261.771,174.299 261.811,174.239C262.104,173.799 262.331,173.654 262.491,173.804C262.651,173.954 262.611,174.309 262.371,174.869C262.317,174.989 262.144,175.304 261.851,175.814C261.557,176.324 261.188,176.939 260.741,177.659C260.294,178.379 259.795,179.139 259.241,179.939C258.688,180.739 258.135,181.479 257.582,182.159C257.028,182.839 256.499,183.399 255.992,183.839C255.485,184.279 255.052,184.499 254.692,184.499C254.372,184.499 254.122,184.404 253.942,184.214C253.762,184.024 253.629,183.794 253.543,183.524C253.456,183.254 253.396,182.974 253.363,182.684C253.329,182.394 253.306,182.149 253.293,181.949C253.253,181.529 253.276,180.929 253.363,180.149C253.449,179.369 253.586,178.449 253.772,177.389C253.453,177.929 253.089,178.474 252.683,179.024C252.276,179.574 251.843,180.069 251.383,180.509C250.923,180.949 250.443,181.304 249.943,181.574C249.443,181.844 248.947,181.949 248.454,181.889C248.107,181.849 247.797,181.759 247.524,181.619C247.251,181.479 247.024,181.254 246.844,180.944C246.664,180.634 246.537,180.224 246.464,179.714C246.391,179.204 246.387,178.559 246.454,177.779C246.507,177.099 246.704,176.234 247.044,175.184C247.384,174.134 247.814,173.099 248.334,172.079C248.854,171.059 249.443,170.174 250.103,169.424C250.763,168.674 251.446,168.259 252.153,168.179ZM262.691,150.959C262.131,152.279 261.557,153.739 260.971,155.339C260.384,156.939 259.808,158.609 259.241,160.349C258.675,162.089 258.135,163.849 257.622,165.629C257.108,167.409 256.645,169.129 256.232,170.789C257.112,169.269 258.002,167.639 258.901,165.899C259.801,164.159 260.624,162.424 261.371,160.694C262.117,158.964 262.734,157.279 263.22,155.639C263.707,153.999 263.97,152.519 264.01,151.199C264.037,150.579 264.024,150.139 263.97,149.879C263.917,149.619 263.837,149.489 263.73,149.489C263.624,149.489 263.467,149.639 263.26,149.939C263.054,150.239 262.864,150.579 262.691,150.959Z" style="fill-rule:nonzero;"/>
            <path d="M262.171,173.009C262.197,172.969 262.264,172.854 262.371,172.664C262.477,172.474 262.607,172.254 262.761,172.004C262.914,171.754 263.08,171.499 263.26,171.239C263.44,170.979 263.62,170.769 263.8,170.609C263.98,170.449 264.147,170.359 264.3,170.339C264.454,170.319 264.577,170.419 264.67,170.639C264.83,171.039 264.857,171.414 264.75,171.764C264.643,172.114 264.49,172.429 264.29,172.709C264.09,172.989 263.884,173.229 263.67,173.429C263.457,173.629 263.317,173.779 263.25,173.879C262.677,174.699 262.237,175.504 261.931,176.294C261.624,177.084 261.417,177.819 261.311,178.499C261.231,178.979 261.201,179.429 261.221,179.849C261.241,180.269 261.314,180.629 261.441,180.929C261.567,181.229 261.747,181.454 261.981,181.604C262.214,181.754 262.511,181.809 262.871,181.769C263.63,181.669 264.34,181.279 265,180.599C265.66,179.919 266.236,179.099 266.73,178.139C266.663,178.139 266.576,178.119 266.47,178.079C266.003,177.939 265.627,177.694 265.34,177.344C265.053,176.994 264.833,176.599 264.68,176.159C264.527,175.719 264.434,175.269 264.4,174.809C264.367,174.349 264.37,173.919 264.41,173.519C264.463,173.099 264.57,172.679 264.73,172.259C264.89,171.839 265.097,171.454 265.35,171.104C265.603,170.754 265.897,170.469 266.23,170.249C266.563,170.029 266.923,169.899 267.31,169.859C267.629,169.819 267.936,169.869 268.229,170.009C268.523,170.149 268.769,170.389 268.969,170.729C269.169,171.069 269.306,171.514 269.379,172.064C269.452,172.614 269.429,173.279 269.309,174.059C269.282,174.219 269.252,174.384 269.219,174.554C269.186,174.724 269.142,174.909 269.089,175.109C269.023,175.389 268.943,175.674 268.849,175.964C268.756,176.254 268.656,176.549 268.549,176.849C269.029,176.769 269.526,176.624 270.039,176.414C270.552,176.204 271.052,175.949 271.539,175.649C272.025,175.349 272.482,175.014 272.908,174.644C273.335,174.274 273.702,173.879 274.008,173.459C274.115,173.319 274.218,173.254 274.318,173.264C274.418,173.274 274.495,173.334 274.548,173.444C274.601,173.554 274.631,173.694 274.638,173.864C274.645,174.034 274.608,174.199 274.528,174.359C274.328,174.779 273.991,175.199 273.518,175.619C273.045,176.039 272.502,176.429 271.889,176.789C271.275,177.149 270.626,177.454 269.939,177.704C269.252,177.954 268.609,178.109 268.009,178.169C267.716,178.809 267.386,179.419 267.02,179.999C266.653,180.579 266.25,181.099 265.81,181.559C265.37,182.019 264.9,182.389 264.4,182.669C263.9,182.949 263.37,183.099 262.811,183.119C262.357,183.119 261.951,183.029 261.591,182.849C261.231,182.669 260.931,182.394 260.691,182.024C260.451,181.654 260.288,181.184 260.201,180.614C260.114,180.044 260.118,179.379 260.211,178.619C260.318,177.739 260.534,176.819 260.861,175.859C261.188,174.899 261.624,173.949 262.171,173.009ZM265.29,174.269C265.277,175.129 265.457,175.764 265.83,176.174C266.203,176.584 266.69,176.829 267.29,176.909C267.569,176.209 267.783,175.549 267.929,174.929C268.049,174.429 268.133,173.964 268.179,173.534C268.226,173.104 268.229,172.729 268.189,172.409C268.149,172.089 268.063,171.844 267.929,171.674C267.796,171.504 267.609,171.429 267.37,171.449C267.05,171.509 266.763,171.649 266.51,171.869C266.256,172.089 266.04,172.344 265.86,172.634C265.68,172.924 265.54,173.219 265.44,173.519C265.34,173.819 265.29,174.069 265.29,174.269Z" style="fill-rule:nonzero;"/>
            <path d="M276.128,163.079C276.194,162.819 276.298,162.604 276.438,162.434C276.578,162.264 276.761,162.179 276.987,162.179C277.401,162.179 277.681,162.479 277.827,163.079L277.187,168.059L276.788,168.059L276.128,163.079ZM273.728,163.079C273.795,162.819 273.898,162.604 274.038,162.434C274.178,162.264 274.361,162.179 274.588,162.179C275.001,162.179 275.281,162.479 275.428,163.079L274.788,168.059L274.388,168.059L273.728,163.079Z" style="fill-rule:nonzero;"/>
        </g>
    </g>
</svg>
