<?xml version="1.0" encoding="UTF-8" standalone="no"?>
<!DOCTYPE svg PUBLIC "-//W3C//DTD SVG 1.1//EN" "http://www.w3.org/Graphics/SVG/1.1/DTD/svg11.dtd">
<svg width="100%" height="100%" viewBox="0 0 195 195" version="1.1" xmlns="http://www.w3.org/2000/svg" xmlns:xlink="http://www.w3.org/1999/xlink" xml:space="preserve" xmlns:serif="http://www.serif.com/" style="fill-rule:evenodd;clip-rule:evenodd;stroke-linejoin:round;stroke-miterlimit:2;">
    <g transform="matrix(1,0,0,1,-2.63801,-2.42138)">
        <g opacity="0.5">
            <path d="M197.007,52.669C197.007,24.937 174.492,2.421 146.759,2.421L52.886,2.421C25.153,2.421 2.638,24.937 2.638,52.669L2.638,146.543C2.638,174.275 25.153,196.791 52.886,196.791L146.759,196.791C174.492,196.791 197.007,174.275 197.007,146.543L197.007,52.669ZM182.091,60.443C182.091,37.269 163.277,18.455 140.103,18.455L59.542,18.455C36.368,18.455 17.554,37.269 17.554,60.443L17.554,138.886C17.554,162.06 36.368,180.875 59.542,180.875L140.103,180.875C163.277,180.875 182.091,162.06 182.091,138.886L182.091,60.443Z" style="fill:rgb(80,57,49);"/>
            <path d="M100.846,49.096C128.913,49.096 151.7,71.883 151.7,99.951C151.7,128.018 128.913,150.805 100.846,150.805C72.779,150.805 49.992,128.018 49.992,99.951C49.992,71.883 72.779,49.096 100.846,49.096ZM100.846,65.735C119.73,65.735 135.062,81.067 135.062,99.951C135.062,118.834 119.73,134.166 100.846,134.166C81.962,134.166 66.631,118.834 66.631,99.951C66.631,81.067 81.962,65.735 100.846,65.735Z" style="fill:rgb(80,57,49);"/>
            <g transform="matrix(1,0,0,1,-3.11959,-4.80447)">
                <circle cx="156.961" cy="50.883" r="11.465" style="fill:rgb(80,57,49);"/>
            </g>
        </g>
    </g>
</svg>
