<?xml version="1.0" encoding="UTF-8" standalone="no"?>
<!DOCTYPE svg PUBLIC "-//W3C//DTD SVG 1.1//EN" "http://www.w3.org/Graphics/SVG/1.1/DTD/svg11.dtd">
<svg width="100%" height="100%" viewBox="0 0 99 68" version="1.1" xmlns="http://www.w3.org/2000/svg" xmlns:xlink="http://www.w3.org/1999/xlink" xml:space="preserve" xmlns:serif="http://www.serif.com/" style="fill-rule:evenodd;clip-rule:evenodd;stroke-linejoin:round;stroke-miterlimit:2;">
    <g transform="matrix(1,0,0,1,-12.3191,-57.4044)">
        <g>
            <g transform="matrix(1,0,0,1,-50.7863,2.04672)">
                <path d="M63.387,95.52C64.847,80.862 72.785,69.973 83.816,63.343C92.966,57.569 102.108,55.21 111.244,55.365L111.445,59.875C98.325,59.661 86.277,71.602 87.682,78.484L87.568,78.866C98.446,80.137 106.899,89.396 106.899,100.613C106.899,112.698 97.087,122.51 85.002,122.51C72.917,122.51 63.105,112.698 63.105,100.613C63.105,98.985 63.153,97.869 63.387,95.52Z" style="fill:rgb(84,56,47);fill-opacity:0.33;"/>
            </g>
            <g transform="matrix(1,0,0,1,-0.27397,2.04672)">
                <path d="M63.387,95.52C64.847,80.862 72.785,69.973 83.816,63.343C92.966,57.569 102.108,55.21 111.244,55.365L111.445,59.875C98.325,59.661 86.277,71.602 87.682,78.484L87.568,78.866C98.446,80.137 106.899,89.396 106.899,100.613C106.899,112.698 97.087,122.51 85.002,122.51C72.917,122.51 63.105,112.698 63.105,100.613C63.105,98.985 63.153,97.869 63.387,95.52Z" style="fill:rgb(84,56,47);fill-opacity:0.33;"/>
            </g>
        </g>
    </g>
</svg>
